<svg width="12" height="12" viewBox="0 0 12 12" fill="none" xmlns="http://www.w3.org/2000/svg">
<path d="M6 10.5C8.48528 10.5 10.5 8.48528 10.5 6C10.5 3.51472 8.48528 1.5 6 1.5C3.51472 1.5 1.5 3.51472 1.5 6C1.5 8.48528 3.51472 10.5 6 10.5Z" stroke="#757575" stroke-linecap="round" stroke-linejoin="round"/>
<path d="M7.50002 7.12505C7.26386 7.4398 6.93466 7.67228 6.55905 7.78955C6.18343 7.90682 5.78044 7.90295 5.40715 7.77848C5.03386 7.65401 4.70918 7.41525 4.47912 7.09602C4.24905 6.77679 4.12525 6.39326 4.12524 5.99977C4.12524 5.60627 4.24904 5.22275 4.4791 4.90351C4.70917 4.58428 5.03383 4.34551 5.40713 4.22104C5.78042 4.09656 6.18341 4.09269 6.55903 4.20995C6.93464 4.32722 7.26384 4.55969 7.50001 4.87444" stroke="#757575" stroke-linecap="round" stroke-linejoin="round"/>
</svg>
