<svg width="181" height="74" viewBox="0 0 181 74" fill="none" xmlns="http://www.w3.org/2000/svg">
<path d="M24.6986 27.44C15.6632 24.2292 7.14175 21.1803 7.14175 14.1653C7.14175 12.3305 7.89921 10.6577 9.06245 9.14678C9.49528 8.58018 10.0093 8.04056 10.5503 7.52792C13.526 4.88377 17.9355 3.18396 21.9933 3.18396C25.5101 3.18396 28.3235 3.66962 30.7041 4.77585C31.3804 5.07264 31.9756 5.45037 32.5707 5.85509C35.7358 8.01358 37.9811 11.6021 39.8477 17.1602L40.1453 18.0236L44.7171 15.2445L44.4736 14.6509C42.4718 10.0641 39.9289 6.71849 36.7097 4.39811C36.1957 4.02038 35.6276 3.66962 35.0865 3.34585C31.5698 1.34925 27.3226 0.37793 22.0204 0.37793C15.8525 0.37793 9.38707 2.91415 5.78915 7.33905C5.38337 7.85169 4.97759 8.36433 4.65296 8.93094C3.59793 10.7117 2.97573 12.7623 2.97573 15.0287C2.97573 24.8228 13.526 28.6811 23.7247 32.4045C32.733 35.6962 41.2544 38.799 41.2544 45.6252C41.2544 51.3722 38.1434 54.7718 35.5194 56.6065C32.3002 58.8729 27.8907 60.168 23.4271 60.168C14.3647 60.168 8.3591 54.7988 5.59978 44.1952L5.35632 43.2509L0 46.4616L0.270522 47.0552C4.89643 57.6318 12.6874 62.9741 23.4542 62.9741C28.9457 62.9741 34.3561 61.4092 38.2787 58.6571C42.9587 55.3654 45.4475 50.5897 45.4475 44.8697C45.4475 34.8867 34.8972 31.1094 24.7256 27.4669L24.6986 27.44Z" fill="#BC8E6D"/>
<path d="M47.9362 4.15516H48.6666C53.6713 4.15516 55.4567 5.12648 55.4567 10.5497V55.8509C55.4567 58.6839 53.6172 59.2236 50.2357 59.2236H47.9092V62.1105H68.09V59.2236H65.7636C62.3279 59.2236 60.4614 58.6839 60.4614 55.8509V9.44345C60.4614 7.39289 59.6227 5.55817 58.1349 4.15516H68.09V1.34912H47.9092V4.15516H47.9362Z" fill="#BC8E6D"/>
<path d="M114.052 51.9388C114.052 55.905 110.832 59.1427 106.829 59.1427H88.1628C85.8092 58.9269 84.5378 58.1714 84.5378 55.8241V36.9103V9.38961C84.5378 7.33905 83.6992 5.50433 82.2113 4.1283H91.6795V1.32227H72.5537V4.1283H72.689C77.6936 4.1283 79.479 5.09962 79.479 10.5228V55.8241C79.479 58.6031 77.7207 59.1697 74.4744 59.1967C74.0957 59.2507 73.717 59.2776 73.2841 59.2776H72.5537V62.0837H116.405V48.5122H114.052V51.9388Z" fill="#BC8E6D"/>
<path d="M178.977 60.5456C177.056 63.2437 174.459 65.8878 171.375 67.1829C167.561 68.8018 163.286 68.559 159.31 67.5607C155.414 66.5893 151.384 64.9975 147.299 63.5135C155.279 63.1627 162.475 59.925 167.723 54.259C173.106 48.4311 176.055 40.4716 176.055 31.8377C176.055 31.8377 176.055 31.7837 176.055 31.7567C176.055 31.7298 176.055 31.7028 176.055 31.6758C176.055 26.4145 174.946 21.423 172.863 16.9981C172.619 16.4855 172.349 15.9728 172.078 15.4872C170.861 13.2477 169.427 11.1432 167.723 9.2815C162.34 3.45358 154.846 0.188868 146.595 0H145.892H145.838C145.838 0 145.811 0 145.784 0C145.784 0 145.757 0 145.73 0H144.972C138.371 0.161887 132.312 2.29339 127.388 6.09773C126.955 6.4215 126.523 6.77226 126.09 7.12301C125.305 7.79754 124.548 8.52603 123.844 9.2815C118.461 15.1094 115.512 23.0688 115.512 31.7028C115.512 31.7028 115.512 31.7567 115.512 31.7837C115.512 31.8107 115.512 31.8377 115.512 31.8647C115.512 37.4767 116.757 42.792 119.11 47.4328C119.11 47.4328 120.03 49.3754 121.22 50.9943C122.032 52.1545 122.898 53.2607 123.844 54.286C126.09 56.7143 128.687 58.6839 131.581 60.1948C128.092 60.3027 124.656 61.2471 121.329 63.4865C121.329 63.5944 122.221 64.7276 122.33 64.7276C122.519 64.7546 125.414 63.3786 126.036 63.1897C136.505 60.0869 146.298 70.5286 155.874 73.0918C161.203 74.5218 167.642 73.9012 172.268 70.7984C175.622 68.559 177.732 65.0514 180.302 62.0295V61.5709C179.978 61.4629 179.22 60.3297 178.95 60.5186L178.977 60.5456ZM144.242 60.6535C144.242 60.6535 144.025 60.6535 143.917 60.6535C140.076 60.3567 136.451 59.1695 133.286 57.2269C131.852 56.3365 130.526 55.3112 129.336 54.1241C125.495 50.3467 122.979 45.1394 121.924 38.8528C121.545 36.6403 121.356 34.293 121.356 31.8107C121.356 29.3284 121.545 26.9811 121.924 24.7686C122.979 18.482 125.495 13.2747 129.336 9.49734C129.417 9.4164 129.525 9.33546 129.634 9.25452C130.039 8.87678 130.445 8.49905 130.878 8.17527C131.663 7.55471 132.447 6.96112 133.286 6.4215C136.451 4.47886 140.076 3.29169 143.917 2.9949C144.025 2.9949 144.134 2.9949 144.242 2.9949C144.756 2.96792 145.27 2.94094 145.784 2.94094C146.298 2.94094 146.812 2.94094 147.326 2.9949C147.434 2.9949 147.542 2.9949 147.65 2.9949C151.492 3.29169 155.117 4.47886 158.282 6.4215C159.716 7.31188 161.041 8.33716 162.231 9.52433C164.098 11.359 165.613 13.5175 166.83 15.9728C167.074 16.4854 167.29 17.0521 167.507 17.5917C168.453 19.8041 169.184 22.2054 169.644 24.8226C170.022 27.0351 170.212 29.3824 170.212 31.8647C170.212 34.3469 170.022 36.6943 169.644 38.9067C168.589 45.1933 166.073 50.4007 162.231 54.178C161.014 55.3652 159.688 56.3905 158.282 57.2809C155.117 59.2235 151.492 60.4107 147.65 60.7075C147.542 60.7075 147.434 60.7075 147.326 60.7075C146.812 60.7344 146.298 60.7614 145.784 60.7614C145.27 60.7614 144.756 60.7614 144.242 60.7075V60.6535Z" fill="#BC8E6D"/>
</svg>
