<?xml version="1.0" encoding="UTF-8"?>
<svg id="Layer_1" xmlns="http://www.w3.org/2000/svg" version="1.1" viewBox="0 0 149.89 78.86">
  <!-- Generator: Adobe Illustrator 30.1.0, SVG Export Plug-In . SVG Version: 2.1.1 Build 136)  -->
  <defs>
    <style>
      .st0 {
        fill: #bc8e6d;
      }

      .st1 {
        fill: #193e6a;
      }
    </style>
  </defs>
  <path class="st0" d="M50.72,47.19c-3.34-1.19-6.49-2.32-6.49-4.92,0-.68.28-1.3.71-1.86.16-.21.35-.41.55-.6,1.1-.98,2.73-1.61,4.23-1.61,1.3,0,2.34.18,3.22.59.25.11.47.25.69.4,1.17.8,2,2.13,2.69,4.19l.11.32,1.69-1.03-.09-.22c-.74-1.7-1.68-2.94-2.87-3.8-.19-.14-.4-.27-.6-.39-1.3-.74-2.87-1.1-4.83-1.1-2.28,0-4.67.94-6,2.58-.15.19-.3.38-.42.59-.39.66-.62,1.42-.62,2.26,0,3.63,3.9,5.06,7.67,6.44,3.33,1.22,6.48,2.37,6.48,4.9,0,2.13-1.15,3.39-2.12,4.07-1.19.84-2.82,1.32-4.47,1.32-3.35,0-5.57-1.99-6.59-5.92l-.09-.35-1.98,1.19.1.22c1.71,3.92,4.59,5.9,8.57,5.9,2.03,0,4.03-.58,5.48-1.6,1.73-1.22,2.65-2.99,2.65-5.11,0-3.7-3.9-5.1-7.66-6.45Z"/>
  <path class="st0" d="M59.3,38.56h.27c1.85,0,2.51.36,2.51,2.37v16.79c0,1.05-.68,1.25-1.93,1.25h-.86v1.07h7.46v-1.07h-.86c-1.27,0-1.96-.2-1.96-1.25v-17.2c0-.76-.31-1.44-.86-1.96h3.68v-1.04h-7.46v1.04Z"/>
  <path class="st0" d="M83.75,56.27c0,1.47-1.19,2.67-2.67,2.67h-6.9c-.87-.08-1.34-.36-1.34-1.23v-7.01s0-10.2,0-10.2c0-.76-.31-1.44-.86-1.95h3.5v-1.04h-7.07v1.04h.05c1.85,0,2.51.36,2.51,2.37v16.79c0,1.03-.65,1.24-1.85,1.25-.14.02-.28.03-.44.03h-.27v1.04h16.21v-5.03h-.87v1.27Z"/>
  <path class="st0" d="M107.74,59.46c-.71,1-1.67,1.98-2.81,2.46-1.41.6-2.99.51-4.46.14-1.44-.36-2.93-.95-4.44-1.5,2.95-.13,5.61-1.33,7.55-3.43,1.99-2.16,3.08-5.11,3.08-8.31,0,0,0-.02,0-.03s0-.02,0-.03c0-1.95-.41-3.8-1.18-5.44-.09-.19-.19-.38-.29-.56-.45-.83-.98-1.61-1.61-2.3-1.99-2.16-4.76-3.37-7.81-3.44h0s-.26,0-.26,0h-.02s-.01,0-.02,0c0,0-.01,0-.02,0h-.28c-2.44.06-4.68.85-6.5,2.26-.16.12-.32.25-.48.38-.29.25-.57.52-.83.8-1.99,2.16-3.08,5.11-3.08,8.31,0,0,0,.02,0,.03s0,.02,0,.03c0,2.08.46,4.05,1.33,5.77,0,0,.34.72.78,1.32.3.43.62.84.97,1.22.83.9,1.79,1.63,2.86,2.19-1.29.04-2.56.39-3.79,1.22,0,.04.33.46.37.46.07.01,1.14-.5,1.37-.57,3.87-1.15,7.49,2.72,11.03,3.67,1.97.53,4.35.3,6.06-.85,1.24-.83,2.02-2.13,2.97-3.25v-.17c-.12-.04-.4-.46-.5-.39ZM94.91,59.5s-.08,0-.12,0c-1.42-.11-2.76-.55-3.93-1.27-.53-.33-1.02-.71-1.46-1.15-1.42-1.4-2.35-3.33-2.74-5.66-.14-.82-.21-1.69-.21-2.61,0-.92.07-1.79.21-2.61.39-2.33,1.32-4.26,2.74-5.66.03-.03.07-.06.11-.09.15-.14.3-.28.46-.4.29-.23.58-.45.89-.65,1.17-.72,2.51-1.16,3.93-1.27.04,0,.08,0,.12,0,.19-.01.38-.02.57-.02.19,0,.38,0,.57.02.04,0,.08,0,.12,0,1.42.11,2.76.55,3.93,1.27.53.33,1.02.71,1.46,1.15.69.68,1.25,1.48,1.7,2.39.09.19.17.4.25.6.35.82.62,1.71.79,2.68.14.82.21,1.69.21,2.61,0,.92-.07,1.79-.21,2.61-.39,2.33-1.32,4.26-2.74,5.66-.45.44-.94.82-1.46,1.15-1.17.72-2.51,1.16-3.93,1.27-.04,0-.08,0-.12,0-.19.01-.38.02-.57.02-.19,0-.38,0-.57-.02Z"/>
  <g>
    <path class="st1" d="M17.29,17.59c.73-.01,1.46-.02,2.19-.02h2.19c.53.01,1.1.03,1.72.06.61.03,1.17.11,1.67.23.44.12.82.29,1.14.54s.59.52.81.84c.22.32.38.67.49,1.04.11.38.17.75.17,1.14.01.68-.12,1.27-.39,1.76s-.63.9-1.08,1.23-.95.58-1.51.76-1.13.29-1.71.32c.49.24.9.53,1.24.88.34.34.64.71.89,1.1.24.36.46.71.66,1.07.2.35.39.67.59.94.2.27.4.49.62.66.22.17.47.25.75.25.43,0,.76-.12,1-.36l.19.12c-.19.35-.45.62-.81.81-.35.19-.74.29-1.15.29-.44.01-.83-.06-1.16-.23-.34-.16-.64-.38-.91-.64-.27-.27-.52-.57-.74-.92-.22-.35-.43-.71-.62-1.08-.22-.4-.44-.79-.68-1.16-.23-.37-.49-.7-.77-.98s-.61-.51-.98-.69c-.37-.17-.8-.27-1.3-.28v2.44c0,.8,0,1.6.02,2.4.01.16.07.31.19.45.12.14.34.23.68.28v.28h-3.4v-.28c.33-.05.55-.14.65-.28.1-.14.17-.3.22-.49.03-3.83.03-7.65,0-11.46-.05-.17-.12-.33-.22-.48-.1-.14-.32-.24-.65-.29v-.26ZM19.8,24.91c.45-.02.87,0,1.25.04.38.05.74.12,1.08.22.5-.02.97-.12,1.41-.29.45-.17.83-.4,1.17-.7.33-.3.6-.67.81-1.09.2-.43.31-.91.32-1.44.02-.65-.1-1.26-.37-1.84-.27-.58-.68-1.01-1.22-1.3-.36-.2-.78-.33-1.25-.4-.47-.07-.97-.1-1.49-.1h-.84c-.33,0-.61,0-.84.02,0,1.16,0,2.3-.02,3.44-.01,1.14-.01,2.29,0,3.44Z"/>
    <path class="st1" d="M30.52,30.85c.33-.06.55-.16.65-.29.1-.14.17-.29.22-.47.03-3.84.03-7.66,0-11.48-.05-.17-.12-.33-.22-.47-.1-.14-.32-.24-.65-.29v-.26c.52-.01,1.09-.02,1.7-.02s1.18,0,1.7.02v.26c-.33.06-.56.17-.68.32-.12.16-.18.3-.19.44-.03,3.84-.03,7.68,0,11.51.01.16.08.31.19.44.12.13.34.23.68.29v.26h-3.4v-.26Z"/>
    <path class="st1" d="M36.1,17.57h12.05l.69,2.57h-.38c-.21-.36-.43-.67-.65-.94-.23-.27-.53-.5-.92-.69-.39-.19-.89-.32-1.51-.42-.62-.09-1.42-.14-2.42-.14,0,2.04,0,4.06-.02,6.06-.01,2.01,0,4.03.02,6.06.02.14.09.29.2.44.11.16.33.26.67.32v.26h-3.4v-.26c.33-.06.55-.16.65-.29.1-.14.17-.29.22-.47.02-2.03.03-4.05.03-6.06,0-2.01,0-4.03,0-6.06-.98,0-1.79.05-2.41.14-.62.09-1.14.23-1.54.41-.4.18-.72.4-.95.68-.24.27-.46.59-.67.95l-.4.02.75-2.57Z"/>
    <path class="st1" d="M50.04,17.57c.27,0,.55,0,.87,0,.31,0,.63,0,.96,0s.65,0,.97,0c.32,0,.6,0,.86,0v.26c-.33.06-.59.16-.75.32-.17.16-.26.3-.29.44-.01,1.26-.01,2.51,0,3.76s0,2.5,0,3.76c0,.69.06,1.33.18,1.91.12.58.33,1.07.63,1.48.3.41.7.73,1.21.94.5.22,1.14.33,1.9.33.71-.01,1.33-.13,1.86-.36.54-.23.99-.54,1.35-.94s.64-.89.84-1.45c.2-.56.3-1.18.31-1.85l.12-7.11c.01-.39-.09-.69-.31-.9s-.53-.32-.94-.33v-.28h2.9v.26c-.36.02-.65.13-.88.33-.23.2-.34.5-.36.92l-.1,7.16c-.02,1.63-.49,2.88-1.39,3.74-.9.86-2.16,1.3-3.76,1.31-3.45.02-5.17-1.65-5.17-5.03,0-1.28,0-2.56,0-3.83s0-2.55,0-3.83c-.02-.18-.12-.34-.28-.48s-.41-.23-.75-.29v-.26Z"/>
    <path class="st1" d="M63.79,31.12v-.26c.33,0,.64-.11.9-.33s.48-.53.64-.94l5.71-12h.61l5.31,12c.07.15.14.3.21.45.07.15.16.29.26.41.1.12.23.22.38.29.15.08.34.11.56.11v.26h-3.9v-.26c.44,0,.7-.13.79-.38.09-.25.06-.55-.08-.88l-1.09-2.51c-.1.03-.21.06-.31.07-.1.01-.22.02-.35.02-.37,0-.77-.06-1.21-.17s-.88-.24-1.33-.38c-.46-.15-.91-.28-1.34-.4-.43-.12-.84-.17-1.21-.17-.33,0-.61.06-.83.17l-1.59,3.42c-.1.22-.14.41-.1.57.04.16.13.29.26.38.13.09.29.16.48.21.19.05.37.07.56.07v.26h-3.29ZM67.71,25.72c.17-.05.37-.07.59-.07.4,0,.83.06,1.28.18.45.12.91.26,1.39.41.44.14.87.27,1.29.38.42.12.8.17,1.14.17.22,0,.4-.02.54-.07l-3.21-7.46-3.02,6.45Z"/>
    <path class="st1" d="M79.87,30.85c.33-.06.55-.16.65-.29.1-.14.17-.29.22-.47.03-3.84.03-7.66,0-11.48-.05-.17-.12-.33-.22-.47-.1-.14-.32-.24-.65-.29v-.26c.52-.01,1.09-.02,1.7-.02s1.18,0,1.7.02v.26c-.33.06-.56.17-.68.32-.12.16-.18.3-.19.44-.04,3.84-.04,7.68,0,11.51l.02.64h.58c.26,0,.53,0,.82,0s.56,0,.83,0h.62c.89-.01,1.64-.04,2.24-.1.6-.05,1.1-.15,1.49-.29s.71-.33.94-.58c.23-.25.42-.57.55-.98h.42l-.47,2.31h-5.1c-.91,0-1.82,0-2.73,0-.91,0-1.82,0-2.73,0v-.26Z"/>
    <path class="st1" d="M92.67,27.53l.33-.03c.14.51.36.97.65,1.39.29.42.64.77,1.04,1.08s.83.53,1.3.69c.47.16.95.24,1.43.24.47-.01.92-.08,1.35-.21.43-.13.8-.31,1.13-.56.32-.25.59-.56.79-.94.2-.38.31-.81.34-1.31.02-.45-.05-.85-.23-1.2-.17-.35-.41-.65-.72-.91-.31-.26-.66-.49-1.06-.68-.4-.19-.82-.36-1.27-.51-.49-.16-.99-.31-1.53-.46-.53-.14-1.03-.33-1.51-.56-.52-.27-.95-.6-1.3-1.01s-.53-.96-.55-1.66c-.02-.51.08-1,.31-1.47.23-.47.6-.88,1.09-1.21.4-.28.88-.49,1.43-.65.55-.16,1.15-.23,1.81-.23.39,0,.76.02,1.09.05s.66.08.96.15c.31.06.6.15.88.25s.58.23.88.36l.5,2.55h-.36c-.09-.33-.26-.67-.49-1.01-.24-.34-.53-.65-.88-.94s-.74-.51-1.17-.69c-.43-.18-.9-.27-1.4-.29-.47-.01-.93.05-1.36.17-.43.13-.81.34-1.12.62-.2.19-.36.41-.49.67-.13.26-.2.56-.23.89-.02.32.03.61.16.87.13.25.31.48.55.68.24.2.52.38.85.53.33.15.69.28,1.07.38.59.15,1.22.34,1.88.56.66.23,1.28.51,1.86.86s1.05.77,1.43,1.28c.38.51.58,1.13.61,1.86.02.72-.11,1.33-.4,1.84-.29.51-.67.93-1.14,1.27-.51.37-1.08.64-1.72.81s-1.28.26-1.94.27c-.84,0-1.67-.11-2.48-.33-.81-.22-1.53-.51-2.15-.88l-.23-2.57Z"/>
    <path class="st1" d="M109.36,17.87v-.28h.87c.42,0,.92,0,1.52,0,.6,0,1.22,0,1.88,0,.53.01,1.08.03,1.64.06.56.03,1.09.11,1.59.25.36.1.67.25.94.45.27.2.49.43.66.69.17.27.3.56.39.87s.13.62.13.94c0,.36-.06.71-.17,1.07-.12.35-.29.68-.53.97-.24.29-.53.54-.88.75-.35.2-.77.34-1.26.41.18.02.36.05.52.08.16.03.32.06.49.1.84.17,1.52.56,2.02,1.15.5.6.75,1.33.75,2.19,0,.66-.14,1.22-.41,1.67-.27.46-.63.83-1.08,1.11-.45.28-.95.49-1.51.62-.56.13-1.13.19-1.71.19-.37,0-.75,0-1.14-.02-.39-.01-.76-.01-1.11,0-.58.01-1.17.01-1.79,0-.61,0-1.21,0-1.8,0v-.29c.36-.02.62-.07.79-.16.17-.08.25-.28.25-.61l.02-11.64c0-.28-.1-.44-.31-.48s-.46-.07-.75-.08ZM114.13,23.8c.3-.01.59-.05.88-.1.29-.06.54-.14.76-.24.24-.13.46-.29.67-.49s.37-.43.51-.69c.14-.25.25-.52.32-.81s.1-.56.08-.84c-.04-.46-.15-.86-.34-1.19-.19-.33-.44-.6-.74-.81-.3-.21-.64-.36-1.02-.47-.38-.1-.77-.16-1.18-.17-.34-.01-.68-.01-1.02,0-.35.01-.68.02-1.01.02v5.29c.09.08.22.15.37.22.16.06.33.12.52.17.19.05.39.08.6.1.21.02.4.03.59.03ZM115.3,30.63c.47-.08.9-.22,1.27-.42.38-.2.69-.44.94-.75.21-.27.37-.57.49-.91.12-.34.16-.71.14-1.12-.02-.49-.1-.89-.23-1.22-.13-.33-.31-.6-.53-.82s-.48-.4-.78-.53c-.3-.13-.62-.24-.97-.32-.29-.07-.59-.13-.9-.17-.31-.05-.62-.1-.94-.16-.31-.06-.62-.12-.92-.19-.3-.07-.57-.16-.82-.28v6.97c.43,0,.93,0,1.51.03.58.02,1.16-.02,1.73-.11Z"/>
    <path class="st1" d="M121.29,17.57h3.99v.29c-.33.06-.53.18-.57.36s.03.41.23.68l4.4,6.12,4.3-6.07c.2-.28.26-.52.18-.73-.08-.21-.26-.34-.56-.38v-.28h2.69v.28c-.34.05-.67.18-.99.39-.32.21-.61.5-.87.86l-4.56,6.47c0,.76,0,1.51,0,2.25,0,.74,0,1.49,0,2.25.01.14.07.29.19.44.12.16.34.26.68.32v.26h-3.4v-.26c.33-.06.56-.15.68-.29.12-.13.18-.29.21-.48.03-.71.05-1.41.03-2.11-.01-.7-.02-1.4-.02-2.11l-4.87-6.76c-.1-.14-.21-.28-.31-.42-.1-.14-.23-.28-.36-.4-.14-.12-.29-.22-.46-.3-.17-.08-.37-.12-.6-.12v-.28Z"/>
  </g>
</svg>