<svg width="245" height="60" viewBox="0 0 245 60" fill="none" xmlns="http://www.w3.org/2000/svg">
<g clip-path="url(#clip0_2001_6585)">
<path d="M85.5978 50.9154C85.5877 50.182 85.5572 49.4243 85.5064 48.6625C84.9156 39.6387 81.6646 31.1943 76.105 24.2411C71.0144 17.8754 64.3359 13.1933 56.7011 10.602C58.1164 10.0368 59.0707 8.60441 58.9529 7.00995C58.7946 4.83808 57.032 3.09977 54.8553 2.96403C54.8553 2.96403 54.7984 2.95997 54.6949 2.95795C53.9761 2.93566 53.2694 3.04101 52.5973 3.25982C52.6176 3.16663 52.6339 3.0714 52.642 2.97416C52.7415 1.72411 51.8927 0.581449 50.6724 0.314017C50.4754 0.269445 50.2805 0.263367 50.116 0.263367H35.4554C35.2991 0.263367 35.1184 0.271471 34.9315 0.314017C33.7051 0.581449 32.8584 1.72614 32.9619 2.97416C32.97 3.0714 32.9863 3.16663 33.0066 3.25982C32.3345 3.04101 31.6258 2.93566 30.905 2.95592C30.8014 2.95997 30.7445 2.962 30.7425 2.962C28.5678 3.09774 26.8053 4.83605 26.6469 7.00792C26.5312 8.60238 27.4835 10.0327 28.8988 10.6C21.2639 13.1913 14.5854 17.8734 9.49485 24.2391C3.93723 31.1943 0.686326 39.6387 0.0954358 48.6605C0.0446721 49.4243 0.0142138 50.182 0.0040611 50.9093C0 51.0349 0 51.1626 0 51.2882H85.6039C85.6039 51.1646 85.6039 51.037 85.5998 50.9154M75.4227 24.784C80.7753 31.478 83.9389 39.584 84.5967 48.2532H78.7366C78.6168 45.895 78.2675 43.5489 77.6908 41.2777C77.039 38.6885 76.0867 36.1641 74.8582 33.7714C73.646 31.403 72.1678 29.1683 70.4662 27.1302C68.7828 25.1143 66.8741 23.2767 64.7908 21.6721C62.6993 20.0574 60.4291 18.6736 58.0453 17.5614C56.0655 16.6334 53.9903 15.8919 51.8684 15.3449C52.3232 15.0126 52.6623 14.5305 52.8024 13.9612C52.8816 13.6431 52.8958 13.3169 52.8451 12.9968C52.7963 12.6827 52.6765 12.389 52.4917 12.1256H52.4897C52.0349 11.4894 51.2754 11.1693 50.5038 11.2868C50.25 11.3274 50.0104 11.4226 49.7911 11.5705H49.7891C49.2368 11.9534 48.9586 12.5997 49.0642 13.2581L49.9272 13.1224C49.8764 12.7982 50.0124 12.4781 50.2866 12.2897C50.3962 12.2147 50.516 12.1661 50.6378 12.1479C51.0785 12.081 51.515 12.2654 51.777 12.628C51.8846 12.78 51.9536 12.9502 51.9821 13.1325C52.0146 13.3392 52.0064 13.5478 51.9557 13.7525C51.8034 14.3704 51.2957 14.8344 50.6663 14.9336C50.6216 14.9397 50.5729 14.9438 50.5119 14.9519C50.4145 14.9579 50.3069 14.9579 50.1871 14.9498C50.0246 14.9154 49.8601 14.883 49.6957 14.8526C48.8063 14.5527 48.2377 13.6026 48.3717 12.6382C48.4185 12.3262 48.4692 12.0101 48.522 11.7022C48.6337 11.0498 48.7738 10.3549 48.9342 9.63362C50.8348 9.90915 52.7029 10.3042 54.4959 10.8229C62.7765 13.1953 70.0113 18.0233 75.4227 24.7881M10.7497 41.4499L8.87553 41.0528C9.47657 38.7999 10.303 36.6118 11.3406 34.5332L18.8252 38.0179C18.1348 39.5576 17.5947 41.1683 17.215 42.8195L10.7518 41.4499H10.7497ZM17.0383 43.6724C16.7439 45.1838 16.5835 46.7196 16.5571 48.2553H7.73842C7.84807 46.1178 8.15469 43.9845 8.65623 41.8977L17.0404 43.6724H17.0383ZM30.905 25.3473C29.4024 26.1111 27.9668 27.0248 26.6266 28.0702L21.7492 22.0591C23.5666 20.6956 25.522 19.5104 27.5708 18.5257L30.905 25.3452V25.3473ZM28.3627 18.157C30.4217 17.2271 32.5761 16.4977 34.7853 15.9831L36.4707 23.2645C34.826 23.6718 33.2218 24.2391 31.6847 24.9563L28.3607 18.157H28.3627ZM25.9484 28.6193C24.6468 29.7093 23.4549 30.9208 22.3929 32.2296L16.1144 27.3348C17.6028 25.5985 19.2618 24.0081 21.0588 22.5919L25.9504 28.6193H25.9484ZM21.8487 32.9103C20.8233 34.2657 19.9319 35.7143 19.1928 37.2277L11.7366 33.7552C12.8087 31.7272 14.09 29.7943 15.552 28.0013L21.8467 32.9083L21.8487 32.9103ZM17.8932 43.8528L29.0186 46.2131L31.3598 46.7074C31.2583 47.222 31.1913 47.7386 31.1608 48.2532H17.4323C17.4587 46.7783 17.613 45.3034 17.8932 43.8528ZM29.1993 45.3621L18.0678 42.9998C18.4333 41.4135 18.9531 39.8656 19.6151 38.3846L29.9811 43.2085L32.1517 44.2174C31.9141 44.7483 31.7172 45.2973 31.5608 45.8605L29.1993 45.3621ZM30.3506 42.4204L19.9908 37.6005C20.7015 36.1459 21.5563 34.756 22.5432 33.4533L31.5954 40.5119L33.4817 41.9828C33.1345 42.4447 32.8198 42.9309 32.5436 43.4415L30.3547 42.4244L30.3506 42.4204ZM32.1314 39.821L23.0792 32.7645C24.1006 31.5063 25.2458 30.3434 26.4966 29.296L33.7559 38.2407L35.2646 40.0966C34.826 40.4673 34.4117 40.8725 34.032 41.3041L32.1314 39.823V39.821ZM34.4361 37.6917L27.1769 28.7469C28.4642 27.742 29.843 26.8647 31.2867 26.1293L36.359 36.5004L37.4108 38.654C36.9052 38.9174 36.4159 39.2213 35.9529 39.5576L34.4361 37.6917ZM37.1428 36.1195L32.0685 25.7423C33.5447 25.0535 35.0879 24.5065 36.6677 24.1155L39.2789 35.3942L39.8191 37.7261C39.2688 37.87 38.7266 38.0564 38.2007 38.2813L37.1448 36.1195H37.1428ZM37.5185 23.9189C39.1043 23.5847 40.7308 23.4023 42.3654 23.374V37.3452C41.7989 37.3675 41.2303 37.4303 40.6699 37.5337L40.1297 35.1957L37.5185 23.9169V23.9189ZM37.3215 23.0701L35.6382 15.8008C35.762 15.7846 35.8757 15.7663 35.9732 15.742C36.0199 15.7319 36.0646 15.7177 36.1093 15.7015L36.1316 15.6954C37.6911 15.3956 39.281 15.199 40.8526 15.116H42.3654V22.5048C40.6638 22.5332 38.9723 22.7236 37.3215 23.0721M41.5491 14.2164C41.3095 14.2245 41.0699 14.2326 40.8323 14.2448H40.7064C40.5135 13.8436 40.1034 12.8833 39.748 11.3314C39.5734 10.5575 39.4292 9.73087 39.3257 8.87589C39.2262 8.07562 39.1591 7.2166 39.1246 6.32313C39.0739 4.9799 38.8647 3.83926 38.5094 2.91338H40.6394L41.1166 8.80701L41.3176 11.3233L41.5511 14.2185L41.5491 14.2164ZM42.1847 11.2504L41.9836 8.73407L41.5126 2.91135H44.0893L43.6223 8.73407L43.4172 11.2504L43.1796 14.1982C42.9278 14.1962 42.674 14.1962 42.4222 14.1982L42.1847 11.2504ZM63.2273 32.2458C62.1653 30.935 60.9794 29.7295 59.6941 28.6497L64.5938 22.6264C66.3807 24.0385 68.0295 25.6228 69.5077 27.349L63.2273 32.2458ZM70.0661 28.0196C71.518 29.8025 72.7972 31.7332 73.8734 33.7714L66.4111 37.2439C65.6741 35.7305 64.7867 34.284 63.7653 32.9346L70.0661 28.0216V28.0196ZM59.0159 28.1006C57.6757 27.0491 56.2381 26.1293 54.7274 25.3594L58.0636 18.5399C60.1144 19.5266 62.0739 20.7199 63.9014 22.0935L59.0159 28.1006ZM53.9456 24.9704C52.4146 24.2532 50.8125 23.686 49.1657 23.2767L50.849 15.9953C53.0583 16.5099 55.2127 17.2412 57.2696 18.1712L53.9436 24.9725L53.9456 24.9704ZM48.3169 23.0782C46.6559 22.7236 44.9523 22.5311 43.2385 22.5028V15.1139H44.7513C46.3229 15.197 47.9108 15.3935 49.4723 15.6934L49.4946 15.6995C49.5393 15.7136 49.584 15.7278 49.6205 15.7359C49.7342 15.7663 49.8601 15.7846 49.9982 15.8008L48.3149 23.0761L48.3169 23.0782ZM44.8975 14.2448H44.7716C44.534 14.2326 44.2944 14.2245 44.0548 14.2164L44.2883 11.3213L44.4934 8.80498L44.9665 2.91135H47.0966C46.7392 3.83723 46.5321 4.97787 46.4813 6.32111C46.4509 7.18013 46.3818 8.03713 46.2803 8.87387C46.1747 9.72681 46.0326 10.5534 45.8579 11.3294C45.5026 12.8813 45.0924 13.8416 44.8995 14.2428M43.2385 23.374C44.8853 23.4023 46.5239 23.5867 48.12 23.927L45.5087 35.2017L44.9686 37.5418C44.3959 37.4344 43.8172 37.3675 43.2385 37.3452V23.374ZM46.3595 35.3983L48.9708 24.1236C50.5526 24.5186 52.0938 25.0657 53.5639 25.7525L48.4916 36.1317L47.4357 38.2914C46.9179 38.0685 46.3778 37.8821 45.8193 37.7363L46.3595 35.4003V35.3983ZM49.2753 36.5126L54.3436 26.1415C55.7934 26.883 57.1762 27.7663 58.4636 28.7773L51.1983 37.714L49.6835 39.582C49.2165 39.2396 48.7271 38.9336 48.2235 38.6682L49.2774 36.5146L49.2753 36.5126ZM51.8765 38.261L59.1418 29.3263C60.3784 30.3657 61.5175 31.5246 62.5389 32.7827L53.4867 39.8372L51.5841 41.3182C51.2044 40.8867 50.7983 40.4855 50.3678 40.1209L51.8765 38.261ZM54.0248 40.524L63.077 33.4695C64.0577 34.7682 64.9106 36.158 65.6192 37.6127L55.2573 42.4325L53.0684 43.4516C52.7943 42.9471 52.4816 42.4589 52.1344 41.9949L54.0228 40.524H54.0248ZM55.6269 43.2206L65.9929 38.3988C66.6548 39.8838 67.1746 41.4297 67.5381 43.0099L56.4066 45.3682L54.0451 45.8707C53.8888 45.3054 53.6918 44.7584 53.4562 44.2337L55.6269 43.2227V43.2206ZM56.5874 46.2212L67.7127 43.8629C67.993 45.3034 68.1452 46.7763 68.1716 48.2553H54.4431C54.4126 47.7386 54.3456 47.224 54.2461 46.7175L56.5874 46.2212ZM66.7848 38.03L74.2694 34.5453C75.309 36.6321 76.1355 38.8181 76.7304 41.0569L68.393 42.8276C68.0153 41.1845 67.4752 39.5739 66.7848 38.03ZM76.9436 41.9038C77.4411 43.9784 77.7497 46.1097 77.8634 48.2553H69.0448C69.0204 46.7135 68.86 45.1798 68.5676 43.6826L76.9436 41.9038ZM54.6685 3.83115C54.7538 3.83318 54.8025 3.83723 54.8045 3.83723C56.5467 3.94461 57.9559 5.3385 58.0839 7.07478C58.1935 8.56592 57.0666 9.86863 55.57 9.98209C55.302 9.9983 55.0299 9.96588 54.7802 9.88484C54.3152 9.73289 53.9172 9.42697 53.6552 9.02784C53.2045 8.32685 53.2491 7.45769 53.7629 6.91067C54.173 6.47103 54.7396 6.32313 55.2777 6.51155C55.7284 6.66958 56.0269 7.03021 56.0594 7.45162L56.9305 7.38678C56.8716 6.61285 56.3498 5.96251 55.568 5.689C54.703 5.38712 53.7669 5.62822 53.1253 6.31706C52.3394 7.15379 52.2542 8.46259 52.9222 9.4999C52.9242 9.50395 52.9283 9.50598 52.9303 9.51003C51.6876 9.21221 50.4165 8.96909 49.1332 8.78067C49.2205 8.42612 49.3078 8.0817 49.3911 7.76565C49.7363 6.46495 50.5546 5.35673 51.6958 4.63953C52.5872 4.07833 53.6146 3.79874 54.6685 3.83115ZM50.1058 1.1386H50.118C50.2338 1.1386 50.3678 1.14265 50.4835 1.16899C51.2836 1.34322 51.8379 2.09082 51.7729 2.90932C51.7425 3.29832 51.5333 3.64071 51.1942 3.85141C50.9729 3.99121 50.7069 4.05604 50.4449 4.03578C49.9982 3.99931 49.6449 3.63463 49.6205 3.18891C49.6205 3.13016 49.6226 3.08761 49.6226 3.0633C49.6368 2.90932 49.7221 2.75737 49.8541 2.65607L49.322 1.96521C48.989 2.22048 48.7799 2.59732 48.7494 3.00252V3.03493L48.7454 3.18891V3.19499C48.7454 3.20715 48.7454 3.22335 48.7454 3.23753V3.25982C48.7332 3.86154 48.6581 6.26438 48.1423 9.05621C47.9859 9.9051 47.7971 10.7256 47.5859 11.4975C47.3098 12.4984 46.9889 13.4202 46.6336 14.2448H45.8539C46.0874 13.6957 46.4143 12.7982 46.7047 11.5259C46.8874 10.7196 47.0336 9.86458 47.1433 8.98125C47.2489 8.1202 47.3199 7.23686 47.3504 6.35352C47.4052 4.89683 47.6489 3.71162 48.0753 2.82626L48.1525 2.67836C48.9484 1.15683 50.053 1.1386 50.0997 1.1386M48.2195 1.1386C47.9758 1.37159 47.7362 1.66536 47.5149 2.04017H38.0911C37.8697 1.66941 37.6322 1.36956 37.3926 1.1386H48.2215H48.2195ZM35.1224 1.16899C35.2382 1.14265 35.3661 1.1386 35.4859 1.1386H35.4981C35.5448 1.1386 36.6494 1.15683 37.4494 2.67836C37.9225 3.5779 38.1906 4.81579 38.2495 6.35555C38.286 7.27333 38.355 8.15666 38.4566 8.98125C38.5662 9.86661 38.7124 10.7216 38.8952 11.5239C39.1855 12.7962 39.5125 13.6957 39.746 14.2448H38.9662C38.6109 13.4202 38.2901 12.4984 38.0139 11.4975C37.8088 10.754 37.6281 9.95575 37.4575 9.05621C36.9215 6.15295 36.8606 3.66502 36.8545 3.19499C36.8545 3.19499 36.8545 3.19094 36.8545 3.18891C36.8524 3.09166 36.8524 3.03696 36.8524 3.03291C36.8524 3.02278 36.8524 3.01062 36.8524 3.00049C36.8524 3.00049 36.8524 2.99644 36.8524 2.99239C36.8524 2.99036 36.8524 2.98631 36.8524 2.98429C36.8179 2.58719 36.6108 2.2144 36.2819 1.96318L35.7519 2.65405C35.8839 2.75535 35.9712 2.9073 35.9834 3.06127C35.9834 3.08559 35.9834 3.12813 35.9854 3.18689C35.961 3.63463 35.6077 3.99729 35.161 4.03375C34.897 4.05807 34.6331 3.99121 34.4077 3.84736C34.0746 3.63868 33.8675 3.29629 33.835 2.90527C33.768 2.08879 34.3203 1.3412 35.1244 1.16494M27.52 7.07478C27.648 5.33647 29.0572 3.94461 30.7973 3.83723C30.7994 3.83723 30.8481 3.83318 30.9354 3.83115C31.9913 3.79469 33.0188 4.0763 33.9122 4.63953C35.0513 5.35471 35.8676 6.46495 36.2128 7.76565C36.2961 8.0817 36.3834 8.42612 36.4707 8.78067C35.1854 8.96909 33.9163 9.21221 32.6736 9.51003C32.6756 9.50598 32.6797 9.50193 32.6837 9.49788C33.3497 8.46259 33.2665 7.15379 32.4807 6.31908C31.839 5.62822 30.9029 5.3851 30.0379 5.69102C29.2541 5.96453 28.7323 6.61488 28.6775 7.38881L29.5486 7.45162C29.579 7.03021 29.8775 6.66958 30.3283 6.51155C30.7446 6.36568 31.3618 6.39404 31.8431 6.9127C32.3548 7.45769 32.3994 8.32887 31.9487 9.02784C31.6908 9.42899 31.2908 9.73289 30.8258 9.88687C30.576 9.96791 30.3019 10.0003 30.0359 9.98412C28.5414 9.87066 27.4144 8.56794 27.5241 7.07681M10.1812 24.784C15.5906 18.0192 22.8274 13.1913 31.108 10.8188C32.899 10.3022 34.7671 9.9051 36.6677 9.63159C36.8281 10.3427 36.9702 11.0397 37.0819 11.7001V11.7042C37.1367 12.0121 37.1855 12.3262 37.2322 12.6341C37.3682 13.6026 36.7976 14.5527 35.9082 14.8526C35.7458 14.883 35.5793 14.9154 35.4189 14.9498C35.3113 14.9579 35.2158 14.9579 35.1184 14.9498C35.0615 14.9478 35.0026 14.9438 34.9437 14.9336C34.3102 14.8344 33.8026 14.3704 33.6503 13.7525C33.5995 13.5478 33.5914 13.3392 33.6239 13.1325C33.6523 12.9502 33.7213 12.782 33.829 12.6301C34.0909 12.2654 34.5254 12.079 34.9681 12.1499C35.092 12.1702 35.2097 12.2168 35.3214 12.2917C35.5935 12.4781 35.7336 12.7982 35.6828 13.1264L36.5458 13.2581C36.6474 12.5977 36.3671 11.9514 35.8148 11.5745C35.5955 11.4246 35.3559 11.3294 35.1021 11.2889C34.3346 11.1714 33.5731 11.4915 33.1183 12.1256V12.1297C32.9315 12.391 32.8116 12.6848 32.7629 12.9988C32.7122 13.3209 32.7264 13.6451 32.8035 13.9632C32.9457 14.5345 33.2827 15.0147 33.7376 15.3469C31.6278 15.894 29.5648 16.6314 27.5952 17.5512C25.2113 18.6594 22.9472 20.0331 20.868 21.6356C18.7724 23.2443 16.8515 25.09 15.1581 27.116C13.4443 29.1663 11.962 31.403 10.7579 33.7592C9.58622 36.0365 8.66232 38.4494 8.00849 40.9373L7.92117 41.2656C7.34247 43.5529 6.99321 45.9031 6.87544 48.2553H1.00512C1.66302 39.586 4.82662 31.478 10.1791 24.7861M0.889381 50.4859C0.899533 50.0381 0.917808 49.5843 0.944206 49.1264H16.5469L31.575 49.1285L42.802 49.1264V48.2553H32.0339C32.0725 47.6616 32.1619 47.064 32.3 46.4724C32.4908 45.6822 32.767 44.9184 33.1223 44.1992C33.4817 43.478 33.9203 42.7972 34.428 42.1752C34.9376 41.5553 35.5143 40.99 36.1458 40.4977C36.7753 40.0034 37.4596 39.5799 38.1784 39.2396C38.9013 38.8992 39.6587 38.6378 40.4343 38.4656C41.2141 38.2914 42.01 38.2043 42.802 38.2043C43.5939 38.2043 44.4101 38.2954 45.2021 38.4758L45.2995 38.0503L45.2041 38.4758C45.9919 38.654 46.7514 38.9154 47.456 39.2517C48.1687 39.5921 48.853 40.0216 49.4886 40.522C50.1058 41.0062 50.6764 41.5674 51.1881 42.1894C51.6978 42.8175 52.1344 43.4982 52.4877 44.2114C52.839 44.9205 53.1151 45.6843 53.306 46.4805C53.4441 47.0599 53.5314 47.6535 53.57 48.2532H42.802L42.8365 49.1244H54.0289L69.057 49.1264L84.6597 49.1244C84.6861 49.5823 84.7044 50.0361 84.7145 50.4839H0.889381V50.4859Z" fill="white"/>
<path d="M116.44 22.3022C108.984 19.6846 101.942 17.2109 101.942 11.5158C101.942 6.49536 108.549 2.60138 114.235 2.60138C122.276 2.60138 126.134 5.5715 128.983 13.951L129.222 14.6581L133.007 12.3951L132.796 11.921C129.171 3.79267 123.62 0.324158 114.237 0.324158C106.673 0.324158 98.5081 4.87253 98.5081 12.2229C98.5081 20.183 107.223 23.3132 115.652 26.3421C123.098 29.0164 130.132 31.5428 130.132 37.0839C130.132 41.7518 127.561 44.5112 125.405 46.0024C122.751 47.8359 119.112 48.8894 115.416 48.8894C107.924 48.8894 102.965 44.5214 100.681 35.9088L100.478 35.141L96.0552 37.7444L96.2684 38.2225C100.09 46.8128 106.533 51.1687 115.418 51.1687C119.965 51.1687 124.428 49.8882 127.659 47.6556C131.527 44.9833 133.572 41.1075 133.572 36.4437C133.572 28.3215 124.865 25.2642 116.446 22.3083" fill="white"/>
<path d="M135.63 3.37126H136.236C140.38 3.37126 141.85 4.15532 141.85 8.55985V45.3662C141.85 47.6758 140.337 48.1135 137.543 48.1135H135.628V50.4575H152.289V48.1135H150.374C147.54 48.1135 146.003 47.6758 146.003 45.3662V7.6603C146.003 5.98885 145.316 4.49569 144.073 3.37126H152.289V1.09201H135.628V3.37126H135.63Z" fill="white"/>
<path d="M192.196 39.432V50.4575H155.969V48.1783H156.574C156.929 48.1783 157.256 48.1519 157.567 48.1114C160.251 48.0932 161.707 47.6292 161.707 45.3662V8.55985C161.707 4.15532 160.237 3.37329 156.092 3.37329H155.971V1.09201H171.78V3.37126H163.959C165.197 4.49164 165.882 5.97872 165.888 7.64207V29.999V45.3662C165.888 47.2646 166.929 47.8967 168.875 48.0628H184.295C187.588 48.0628 190.256 45.4432 190.256 42.2137V39.432H192.196Z" fill="white"/>
<path d="M243.879 49.1974C242.303 51.3814 240.159 53.5411 237.605 54.6007C234.447 55.9115 230.914 55.715 227.645 54.9107C224.432 54.1205 221.1 52.8178 217.724 51.6245C224.317 51.3449 230.27 48.7111 234.587 44.1121C239.032 39.3753 241.479 32.9063 241.479 25.8984C241.479 25.8761 241.479 25.8558 241.479 25.8335C241.479 25.8112 241.479 25.789 241.479 25.7667C241.479 18.7587 239.032 12.2917 234.587 7.55293C230.142 2.81411 223.959 0.153976 217.129 0.014182V0H216.509C216.495 0 216.479 0 216.465 0C216.45 0 216.434 0 216.418 0H215.799V0.014182C208.968 0.156002 202.785 2.81411 198.34 7.55293C193.895 12.2897 191.448 18.7587 191.448 25.7667C191.448 25.789 191.448 25.8112 191.448 25.8335C191.448 25.8558 191.448 25.8761 191.448 25.8984C191.448 30.4508 192.488 34.7722 194.429 38.5426C194.429 38.5426 195.186 40.1209 196.169 41.4297C196.829 42.3718 197.552 43.2693 198.342 44.1101C200.196 46.0854 202.352 47.692 204.73 48.9137C201.855 49.011 199.016 49.7687 196.261 51.584C196.238 51.6711 196.99 52.5848 197.087 52.6031C197.25 52.6335 199.642 51.5111 200.151 51.3611C208.803 48.8367 216.897 57.3277 224.806 59.4064C229.206 60.5632 234.534 60.0648 238.36 57.5384C241.12 55.715 242.876 52.8583 245 50.417V50.0503C244.732 49.9733 244.102 49.0454 243.881 49.1953M215.2 49.2845C215.108 49.2784 215.017 49.2723 214.925 49.2642C211.75 49.0191 208.755 48.0669 206.149 46.4825C204.976 45.7694 203.877 44.9326 202.882 43.9723C199.7 40.9029 197.629 36.6706 196.76 31.555C196.454 29.7538 196.293 27.8433 196.289 25.8315C196.293 23.8197 196.454 21.9112 196.758 20.1081C197.629 14.9904 199.7 10.7581 202.882 7.6907C203.877 6.73037 204.976 5.89363 206.149 5.18048C208.755 3.59615 211.75 2.64393 214.925 2.40081C215.017 2.39271 215.108 2.38663 215.202 2.38055C215.62 2.35421 216.042 2.33598 216.467 2.33395C216.891 2.33395 217.313 2.35421 217.732 2.38055C217.823 2.38663 217.914 2.39271 218.006 2.40081C221.182 2.64596 224.177 3.59818 226.782 5.18251C227.955 5.89566 229.054 6.7324 230.049 7.69272C233.231 10.7621 235.302 14.9944 236.171 20.1101C236.478 21.9132 236.638 23.8217 236.642 25.8335C236.638 27.8433 236.478 29.7538 236.171 31.557C235.3 36.6747 233.229 40.907 230.049 43.9743C229.054 44.9347 227.955 45.7714 226.782 46.4846C224.177 48.0689 221.182 49.0211 218.006 49.2663C217.914 49.2744 217.823 49.2804 217.73 49.2865C217.311 49.3128 216.889 49.3311 216.465 49.3331C216.04 49.3311 215.618 49.3128 215.2 49.2865" fill="white"/>
</g>
<defs>
<clipPath id="clip0_2001_6585">
<rect width="245" height="60" fill="white"/>
</clipPath>
</defs>
</svg>
