<svg width="110" height="27" viewBox="0 0 110 27" fill="none" xmlns="http://www.w3.org/2000/svg">
<g clip-path="url(#clip0_2001_6458)">
<path d="M38.4317 22.9118C38.4271 22.5818 38.4134 22.2408 38.3906 21.898C38.1254 17.8373 36.6658 14.0373 34.1696 10.9084C31.884 8.04382 28.8855 5.93688 25.4576 4.77081C26.0931 4.51645 26.5215 3.87188 26.4687 3.15437C26.3976 2.17703 25.6062 1.39479 24.6289 1.3337C24.6289 1.3337 24.6034 1.33188 24.5569 1.33097C24.2342 1.32094 23.9169 1.36835 23.6151 1.46681C23.6242 1.42487 23.6315 1.38202 23.6352 1.33826C23.6799 0.775744 23.2988 0.261545 22.7509 0.141201C22.6624 0.121143 22.5749 0.118408 22.5011 0.118408H15.9188C15.8486 0.118408 15.7674 0.122055 15.6836 0.141201C15.1329 0.261545 14.7527 0.776656 14.7992 1.33826C14.8029 1.38202 14.8102 1.42487 14.8193 1.46681C14.5175 1.36835 14.1993 1.32094 13.8757 1.33006C13.8292 1.33188 13.8037 1.33279 13.8028 1.33279C12.8264 1.39388 12.035 2.17612 11.9639 3.15346C11.9119 3.87097 12.3395 4.51463 12.975 4.7699C9.54706 5.93597 6.54856 8.04291 4.26299 10.9075C1.76774 14.0373 0.308146 17.8373 0.0428487 21.8971C0.0200569 22.2408 0.00638173 22.5818 0.00182335 22.9091C0 22.9656 0 23.0231 0 23.0796H38.4344C38.4344 23.024 38.4344 22.9665 38.4326 22.9118M33.8633 11.1527C36.2664 14.165 37.6868 17.8127 37.9822 21.7138H35.3511C35.2973 20.6526 35.1405 19.5969 34.8816 18.5749C34.589 17.4097 34.1614 16.2737 33.6098 15.197C33.0656 14.1312 32.4019 13.1256 31.6379 12.2085C30.8821 11.3013 30.0251 10.4744 29.0897 9.75234C28.1507 9.02572 27.1315 8.40303 26.0611 7.9025C25.1723 7.48494 24.2405 7.15126 23.2878 6.9051C23.4921 6.75558 23.6443 6.5386 23.7072 6.28241C23.7428 6.13928 23.7491 5.99249 23.7264 5.84844C23.7045 5.70713 23.6507 5.57493 23.5677 5.45641H23.5668C23.3626 5.17014 23.0216 5.02609 22.6752 5.07897C22.5612 5.0972 22.4537 5.14005 22.3552 5.20661H22.3543C22.1063 5.37892 21.9814 5.66975 22.0288 5.96605L22.4163 5.90497C22.3935 5.7591 22.4546 5.61505 22.5776 5.53026C22.6269 5.49653 22.6807 5.47465 22.7354 5.46644C22.9332 5.43636 23.1292 5.51932 23.2468 5.68251C23.2951 5.75089 23.3261 5.82747 23.3389 5.90953C23.3535 6.00252 23.3498 6.09643 23.327 6.18851C23.2587 6.46658 23.0307 6.67535 22.7481 6.72003C22.7281 6.72276 22.7062 6.72459 22.6788 6.72823C22.6351 6.73097 22.5868 6.73097 22.533 6.72732C22.46 6.71182 22.3862 6.69724 22.3123 6.68356C21.913 6.54863 21.6578 6.12104 21.7179 5.68707C21.7389 5.54667 21.7617 5.40445 21.7854 5.26587C21.8355 4.9723 21.8984 4.65959 21.9705 4.33502C22.8238 4.45901 23.6625 4.63679 24.4675 4.87019C28.1854 5.93779 31.4337 8.11037 33.8633 11.1545M4.82641 18.6524L3.98493 18.4737C4.25479 17.4599 4.62584 16.4752 5.09171 15.5398L8.45214 17.1079C8.14217 17.8008 7.89967 18.5256 7.72918 19.2687L4.82732 18.6524H4.82641ZM7.64987 19.6525C7.51767 20.3326 7.44565 21.0237 7.4338 21.7148H3.47439C3.52363 20.7529 3.66129 19.7929 3.88647 18.8538L7.65078 19.6525H7.64987ZM13.8757 11.4062C13.2011 11.7499 12.5565 12.1611 11.9548 12.6315L9.76495 9.92648C10.5809 9.3129 11.4588 8.77956 12.3787 8.33647L13.8757 11.4053V11.4062ZM12.7343 8.17054C13.6587 7.75207 14.626 7.42386 15.6179 7.19229L16.3746 10.4689C15.6361 10.6522 14.9159 10.9075 14.2258 11.2302L12.7334 8.17054H12.7343ZM11.6503 12.8786C11.0659 13.3691 10.5308 13.9143 10.054 14.5032L7.23506 12.3005C7.90331 11.5192 8.64815 10.8035 9.45498 10.1663L11.6512 12.8786H11.6503ZM9.80963 14.8095C9.34923 15.4195 8.949 16.0713 8.61716 16.7524L5.26948 15.1897C5.75085 14.2771 6.32611 13.4073 6.98252 12.6005L9.80871 14.8086L9.80963 14.8095ZM8.03368 19.7336L13.0288 20.7958L14.0799 21.0182C14.0343 21.2498 14.0042 21.4823 13.9906 21.7138H7.82673C7.83858 21.0501 7.90787 20.3864 8.03368 19.7336ZM13.1099 20.4129L8.11209 19.3498C8.27619 18.636 8.50958 17.9394 8.80678 17.273L13.4609 19.4437L14.4355 19.8977C14.3288 20.1366 14.2404 20.3837 14.1702 20.6371L13.1099 20.4129ZM13.6268 19.0891L8.97544 16.9201C9.29453 16.2655 9.67834 15.6401 10.1214 15.0539L14.1857 18.2302L15.0326 18.8921C14.8767 19.1 14.7354 19.3188 14.6114 19.5486L13.6286 19.0909L13.6268 19.0891ZM14.4264 17.9194L10.3621 14.7439C10.8207 14.1777 11.3349 13.6544 11.8965 13.1831L15.1557 17.2082L15.8331 18.0433C15.6361 18.2102 15.4502 18.3925 15.2797 18.5867L14.4264 17.9203V17.9194ZM15.4611 16.9612L12.2019 12.936C12.7799 12.4838 13.3989 12.089 14.0471 11.7581L16.3245 16.4251L16.7967 17.3942C16.5697 17.5127 16.35 17.6495 16.1421 17.8008L15.4611 16.9612ZM16.6764 16.2537L14.3981 11.5839C15.0609 11.274 15.7537 11.0278 16.463 10.8519L17.6354 15.9273L17.878 16.9767C17.6309 17.0414 17.3875 17.1253 17.1513 17.2265L16.6773 16.2537H16.6764ZM16.845 10.7634C17.557 10.613 18.2873 10.5309 19.0212 10.5182V16.8053C18.7668 16.8153 18.5116 16.8435 18.2599 16.89L18.0174 15.8379L16.845 10.7625V10.7634ZM16.7566 10.3814L16.0008 7.11024C16.0564 7.10294 16.1075 7.09474 16.1512 7.0838C16.1722 7.07924 16.1923 7.07286 16.2123 7.06556L16.2224 7.06283C16.9225 6.9279 17.6364 6.83946 18.342 6.80208H19.0212V10.1271C18.2572 10.1398 17.4978 10.2255 16.7566 10.3823M18.6547 6.39729C18.5471 6.40093 18.4395 6.40458 18.3329 6.41005H18.2764C18.1897 6.22953 18.0056 5.79739 17.846 5.09903C17.7676 4.75076 17.7029 4.37878 17.6564 3.99405C17.6117 3.63392 17.5817 3.24736 17.5662 2.8453C17.5434 2.24085 17.4495 1.72756 17.2899 1.31091H18.2463L18.4605 3.96305L18.5508 5.09538L18.6556 6.3982L18.6547 6.39729ZM18.9401 5.06256L18.8498 3.93023L18.6383 1.31H19.7952L19.5855 3.93023L19.4934 5.06256L19.3868 6.38908C19.2737 6.38817 19.1598 6.38817 19.0467 6.38908L18.9401 5.06256ZM28.3877 14.5105C27.9109 13.9206 27.3785 13.3782 26.8014 12.8922L29.0013 10.1818C29.8036 10.8172 30.5439 11.5302 31.2076 12.3069L28.3877 14.5105ZM31.4583 12.6087C32.1101 13.411 32.6845 14.2798 33.1677 15.197L29.8173 16.7597C29.4863 16.0786 29.0879 15.4277 28.6293 14.8205L31.4583 12.6096V12.6087ZM26.4969 12.6452C25.8952 12.172 25.2498 11.7581 24.5715 11.4116L26.0694 8.34286C26.9901 8.78685 27.8699 9.32384 28.6904 9.94198L26.4969 12.6452ZM24.2205 11.2366C23.5331 10.9138 22.8138 10.6586 22.0744 10.4744L22.8302 7.19776C23.8221 7.42933 24.7894 7.75846 25.7129 8.17693L24.2196 11.2375L24.2205 11.2366ZM21.6933 10.3851C20.9476 10.2255 20.1827 10.1389 19.4132 10.1261V6.80117H20.0924C20.798 6.83855 21.511 6.92698 22.2121 7.06192L22.2221 7.06465C22.2421 7.07103 22.2622 7.07741 22.2786 7.08106C22.3297 7.09474 22.3862 7.10294 22.4482 7.11024L21.6924 10.3842L21.6933 10.3851ZM20.1581 6.41005H20.1015C19.9949 6.40458 19.8873 6.40093 19.7797 6.39729L19.8846 5.09447L19.9766 3.96214L20.189 1.31H21.1454C20.9849 1.72665 20.892 2.23993 20.8692 2.84439C20.8555 3.23095 20.8245 3.6166 20.7789 3.99313C20.7315 4.37696 20.6677 4.74893 20.5893 5.09811C20.4297 5.79648 20.2456 6.22862 20.159 6.40914M19.4132 10.5182C20.1526 10.5309 20.8883 10.6139 21.6049 10.7671L20.4325 15.8407L20.19 16.8937C19.9329 16.8454 19.673 16.8153 19.4132 16.8053V10.5182ZM20.8145 15.9291L21.9869 10.8555C22.6971 11.0333 23.389 11.2794 24.0491 11.5885L21.7717 16.2591L21.2976 17.231C21.0652 17.1307 20.8227 17.0469 20.572 16.9812L20.8145 15.93V15.9291ZM22.1236 16.4305L24.3992 11.7636C25.0501 12.0972 25.671 12.4947 26.249 12.9497L22.987 16.9712L22.3069 17.8118C22.0972 17.6577 21.8775 17.52 21.6514 17.4006L22.1245 16.4315L22.1236 16.4305ZM23.2915 17.2173L26.5535 13.1967C27.1087 13.6644 27.6201 14.1859 28.0787 14.7521L24.0144 17.9266L23.1602 18.5931C22.9897 18.3989 22.8074 18.2184 22.6141 18.0543L23.2915 17.2173ZM24.256 18.2357L28.3203 15.0612C28.7606 15.6456 29.1435 16.271 29.4617 16.9256L24.8094 19.0945L23.8266 19.5531C23.7036 19.3261 23.5632 19.1064 23.4073 18.8976L24.2551 18.2357H24.256ZM24.9753 19.4492L29.6294 17.2793C29.9267 17.9476 30.16 18.6432 30.3232 19.3544L25.3254 20.4156L24.2652 20.6417C24.195 20.3873 24.1065 20.1412 24.0008 19.905L24.9753 19.4501V19.4492ZM25.4066 20.7994L30.4016 19.7382C30.5274 20.3864 30.5958 21.0492 30.6077 21.7148H24.4438C24.4302 21.4823 24.4001 21.2507 24.3554 21.0228L25.4066 20.7994ZM29.985 17.1134L33.3454 15.5453C33.8122 16.4843 34.1833 17.4681 34.4504 18.4755L30.707 19.2723C30.5375 18.5329 30.295 17.8081 29.985 17.1134ZM34.5461 18.8566C34.7695 19.7902 34.908 20.7493 34.9591 21.7148H30.9997C30.9888 21.021 30.9167 20.3308 30.7855 19.6571L34.5461 18.8566ZM24.545 1.72391C24.5833 1.72482 24.6052 1.72665 24.6061 1.72665C25.3883 1.77497 26.021 2.40222 26.0785 3.18354C26.1277 3.85456 25.6217 4.44078 24.9498 4.49183C24.8295 4.49913 24.7073 4.48454 24.5952 4.44807C24.3864 4.37969 24.2077 4.24203 24.0901 4.06242C23.8877 3.74697 23.9078 3.35586 24.1384 3.1097C24.3226 2.91186 24.5769 2.8453 24.8185 2.93009C25.0209 3.0012 25.1549 3.16349 25.1695 3.35312L25.5606 3.32395C25.5342 2.97568 25.2999 2.68302 24.9489 2.55994C24.5605 2.4241 24.1403 2.53259 23.8522 2.84257C23.4993 3.2191 23.4611 3.80806 23.761 4.27485C23.7619 4.27667 23.7637 4.27758 23.7646 4.27941C23.2067 4.14539 22.636 4.03598 22.0598 3.9512C22.099 3.79165 22.1382 3.63666 22.1756 3.49443C22.3306 2.90912 22.698 2.41042 23.2103 2.08768C23.6106 1.83514 24.0719 1.70932 24.545 1.72391ZM22.4965 0.512263H22.502C22.5539 0.512263 22.6141 0.514086 22.6661 0.525938C23.0253 0.604344 23.2742 0.940762 23.245 1.30909C23.2313 1.48413 23.1374 1.63821 22.9852 1.73303C22.8858 1.79594 22.7664 1.82511 22.6487 1.81599C22.4482 1.79958 22.2895 1.63548 22.2786 1.4349C22.2786 1.40846 22.2795 1.38932 22.2795 1.37838C22.2859 1.30909 22.3242 1.24071 22.3835 1.19513L22.1446 0.884236C21.9951 0.999111 21.9012 1.16869 21.8875 1.35103V1.36561L21.8857 1.4349V1.43764C21.8857 1.44311 21.8857 1.4504 21.8857 1.45678V1.46681C21.8802 1.73759 21.8465 2.81886 21.6149 4.07519C21.5447 4.45719 21.4599 4.82643 21.3651 5.17379C21.2411 5.62417 21.0971 6.03899 20.9375 6.41005H20.5875C20.6923 6.16298 20.8391 5.7591 20.9694 5.18655C21.0515 4.82369 21.1171 4.43896 21.1664 4.04145C21.2138 3.65398 21.2457 3.25648 21.2594 2.85898C21.284 2.20347 21.3934 1.67012 21.5848 1.27171L21.6195 1.20515C21.9768 0.520468 22.4728 0.512263 22.4938 0.512263M21.6496 0.512263C21.5402 0.617108 21.4326 0.749305 21.3332 0.917969H17.1021C17.0027 0.751128 16.8961 0.616196 16.7885 0.512263H21.6505H21.6496ZM15.7692 0.525938C15.8212 0.514086 15.8786 0.512263 15.9324 0.512263H15.9379C15.9589 0.512263 16.4548 0.520468 16.814 1.20515C17.0264 1.60995 17.1468 2.167 17.1732 2.85989C17.1896 3.27289 17.2206 3.67039 17.2662 4.04145C17.3154 4.43987 17.3811 4.8246 17.4631 5.18564C17.5935 5.75819 17.7403 6.16298 17.8451 6.41005H17.495C17.3355 6.03899 17.1915 5.62417 17.0675 5.17379C16.9754 4.83919 16.8943 4.47998 16.8177 4.07519C16.577 2.76872 16.5496 1.64915 16.5469 1.43764C16.5469 1.43764 16.5469 1.43581 16.5469 1.4349C16.546 1.39114 16.546 1.36653 16.546 1.3647C16.546 1.36014 16.546 1.35467 16.546 1.35012C16.546 1.35012 16.546 1.34829 16.546 1.34647C16.546 1.34556 16.546 1.34373 16.546 1.34282C16.5305 1.16413 16.4375 0.996375 16.2898 0.883325L16.0519 1.19421C16.1111 1.2398 16.1503 1.30818 16.1558 1.37747C16.1558 1.38841 16.1558 1.40755 16.1567 1.43399C16.1458 1.63548 15.9871 1.79867 15.7866 1.81508C15.6681 1.82602 15.5495 1.79594 15.4483 1.73121C15.2988 1.6373 15.2058 1.48322 15.1912 1.30727C15.1612 0.93985 15.4091 0.603433 15.7702 0.524115M12.3559 3.18354C12.4134 2.40131 13.0461 1.77497 13.8274 1.72665C13.8283 1.72665 13.8502 1.72482 13.8894 1.72391C14.3634 1.7075 14.8248 1.83423 15.2259 2.08768C15.7373 2.40951 16.1038 2.90912 16.2588 3.49443C16.2962 3.63666 16.3354 3.79165 16.3746 3.9512C15.7975 4.03598 15.2277 4.14539 14.6698 4.27941C14.6707 4.27758 14.6725 4.27576 14.6743 4.27394C14.9734 3.80806 14.936 3.2191 14.5832 2.84348C14.2951 2.53259 13.8748 2.42319 13.4864 2.56085C13.1345 2.68393 12.9002 2.97659 12.8756 3.32486L13.2667 3.35312C13.2804 3.16349 13.4144 3.0012 13.6168 2.93009C13.8037 2.86445 14.0808 2.87721 14.2969 3.11061C14.5266 3.35586 14.5467 3.74789 14.3443 4.06242C14.2285 4.24294 14.0489 4.37969 13.8401 4.44898C13.728 4.48545 13.6049 4.50004 13.4855 4.49275C12.8145 4.44169 12.3085 3.85547 12.3578 3.18446M4.57114 11.1527C6.99984 8.10855 10.2491 5.93597 13.9669 4.86837C14.771 4.63588 15.6097 4.45719 16.463 4.33411C16.5351 4.65412 16.5989 4.96774 16.649 5.26496V5.26678C16.6736 5.40536 16.6955 5.54667 16.7165 5.68525C16.7776 6.12104 16.5214 6.54863 16.1221 6.68356C16.0491 6.69724 15.9744 6.71182 15.9024 6.72732C15.854 6.73097 15.8112 6.73097 15.7674 6.72732C15.7419 6.72641 15.7155 6.72459 15.689 6.72003C15.4046 6.67535 15.1767 6.46658 15.1083 6.18851C15.0855 6.09643 15.0818 6.00252 15.0964 5.90953C15.1092 5.82747 15.1402 5.7518 15.1885 5.68343C15.3061 5.51932 15.5012 5.43544 15.7 5.46735C15.7556 5.47647 15.8084 5.49744 15.8586 5.53117C15.9808 5.61505 16.0437 5.7591 16.0209 5.90679L16.4083 5.96605C16.4539 5.66884 16.3281 5.37801 16.0801 5.20843C15.9817 5.14096 15.8741 5.09811 15.7601 5.07988C15.4155 5.027 15.0736 5.17105 14.8694 5.45641V5.45824C14.7856 5.57585 14.7318 5.70804 14.7099 5.84936C14.6871 5.99432 14.6935 6.14019 14.7281 6.28332C14.7919 6.54042 14.9433 6.7565 15.1475 6.90602C14.2003 7.15217 13.274 7.48403 12.3897 7.89794C11.3194 8.39664 10.3028 9.01478 9.36929 9.73593C8.42844 10.4598 7.56599 11.2904 6.80566 12.2021C6.0362 13.1247 5.37068 14.1312 4.83006 15.1915C4.30402 16.2163 3.88921 17.3021 3.59565 18.4217L3.55645 18.5694C3.29662 19.5987 3.13981 20.6563 3.08693 21.7148H0.451279C0.746662 17.8136 2.16705 14.165 4.57023 11.1536M0.399314 22.7185C0.403872 22.5171 0.412077 22.3128 0.423929 22.1068H7.42924L14.1766 22.1077L19.2172 22.1068V21.7148H14.3826C14.3999 21.4476 14.44 21.1787 14.502 20.9125C14.5877 20.5569 14.7117 20.2132 14.8712 19.8895C15.0326 19.565 15.2295 19.2586 15.4575 18.9787C15.6863 18.6998 15.9452 18.4454 16.2287 18.2239C16.5114 18.0014 16.8186 17.8109 17.1413 17.6577C17.4659 17.5045 17.8059 17.3869 18.1542 17.3094C18.5043 17.231 18.8617 17.1918 19.2172 17.1918C19.5728 17.1918 19.9393 17.2328 20.2948 17.314L20.3386 17.1225L20.2957 17.314C20.6494 17.3942 20.9904 17.5118 21.3068 17.6632C21.6268 17.8163 21.934 18.0096 22.2194 18.2348C22.4965 18.4527 22.7527 18.7052 22.9824 18.9851C23.2113 19.2678 23.4073 19.5741 23.5659 19.895C23.7236 20.2141 23.8476 20.5578 23.9333 20.9161C23.9953 21.1769 24.0345 21.444 24.0518 21.7138H19.2172L19.2327 22.1059H24.2579L31.0052 22.1068L38.0105 22.1059C38.0223 22.3119 38.0305 22.5161 38.0351 22.7176H0.399314V22.7185Z" fill="#263F64"/>
<path d="M52.279 10.0359C48.9313 8.85796 45.7697 7.74477 45.7697 5.18198C45.7697 2.92279 48.7362 1.1705 51.2889 1.1705C54.8992 1.1705 56.6314 2.50706 57.9104 6.27785L58.018 6.59603L59.7174 5.57766L59.6226 5.36432C57.9952 1.70658 55.5027 0.145752 51.2899 0.145752C47.8939 0.145752 44.228 2.19252 44.228 5.50017C44.228 9.08224 48.1409 10.4908 51.9253 11.8538C55.2684 13.0573 58.4264 14.1941 58.4264 16.6876C58.4264 18.7882 57.2723 20.0299 56.3041 20.7009C55.1125 21.526 53.4788 22.0001 51.8195 22.0001C48.4555 22.0001 46.2291 20.0345 45.2035 16.1589L45.1123 15.8133L43.1267 16.9849L43.2224 17.2C44.9382 21.0656 47.831 23.0258 51.8204 23.0258C53.8617 23.0258 55.8655 22.4496 57.316 21.4449C59.0528 20.2424 59.9708 18.4983 59.9708 16.3995C59.9708 12.7445 56.0616 11.3688 52.2818 10.0386" fill="#263F64"/>
<path d="M60.8954 1.51712H61.1671C63.0279 1.51712 63.6879 1.86995 63.6879 3.85198V20.4148C63.6879 21.4542 63.0087 21.6511 61.7542 21.6511H60.8945V22.7059H68.3748V21.6511H67.5151C66.2424 21.6511 65.5523 21.4542 65.5523 20.4148V3.44719C65.5523 2.69503 65.2441 2.02311 64.6862 1.51712H68.3748V0.491455H60.8945V1.51712H60.8954Z" fill="#263F64"/>
<path d="M86.2918 17.7445V22.7059H70.0266V21.6803H70.2983C70.4578 21.6803 70.6046 21.6684 70.7441 21.6502C71.9493 21.642 72.603 21.4332 72.603 20.4148V3.85198C72.603 1.86995 71.943 1.51803 70.0822 1.51803H70.0275V0.491455H77.1258V1.51712H73.6141C74.1702 2.02129 74.4774 2.69048 74.4801 3.43898V13.4996V20.4148C74.4801 21.2691 74.9478 21.5536 75.8212 21.6283H82.7445C84.2232 21.6283 85.4212 20.4495 85.4212 18.9962V17.7445H86.2918Z" fill="#263F64"/>
<path d="M109.497 22.1388C108.789 23.1216 107.826 24.0935 106.68 24.5703C105.262 25.1602 103.676 25.0718 102.208 24.7098C100.766 24.3542 99.2695 23.768 97.7534 23.231C100.714 23.1052 103.387 21.92 105.325 19.8504C107.321 17.7189 108.419 14.8078 108.419 11.6543C108.419 11.6442 108.419 11.6351 108.419 11.6251C108.419 11.6151 108.419 11.605 108.419 11.595C108.419 8.44143 107.321 5.53128 105.325 3.39882C103.329 1.26635 100.553 0.0692892 97.4863 0.0063819V0H97.2082C97.2018 0 97.1945 0 97.1881 0C97.1818 0 97.1745 0 97.1672 0H96.8891V0.0063819C93.8222 0.0702009 91.0462 1.26635 89.0505 3.39882C87.0549 5.53037 85.9563 8.44143 85.9563 11.595C85.9563 11.605 85.9563 11.6151 85.9563 11.6251C85.9563 11.6351 85.9563 11.6442 85.9563 11.6543C85.9563 13.7029 86.4231 15.6475 87.2946 17.3442C87.2946 17.3442 87.6347 18.0544 88.0759 18.6434C88.3722 19.0673 88.6968 19.4712 89.0514 19.8495C89.8838 20.7384 90.852 21.4614 91.9196 22.0112C90.6286 22.0549 89.3541 22.3959 88.117 23.2128C88.1069 23.252 88.4443 23.6632 88.488 23.6714C88.561 23.6851 89.6349 23.18 89.8637 23.1125C93.7484 21.9765 97.3823 25.7975 100.933 26.7329C102.909 27.2535 105.301 27.0292 107.019 25.8923C108.258 25.0718 109.046 23.7863 110 22.6877V22.5226C109.88 22.488 109.597 22.0704 109.498 22.1379M96.6202 22.178C96.5791 22.1753 96.5381 22.1725 96.4971 22.1689C95.0712 22.0586 93.7265 21.6301 92.5568 20.9171C92.0299 20.5962 91.5367 20.2197 91.0899 19.7875C89.6613 18.4063 88.7314 16.5018 88.3412 14.1997C88.2036 13.3892 88.1316 12.5295 88.1297 11.6242C88.1316 10.7189 88.2036 9.86004 88.3403 9.04862C88.7314 6.74567 89.6613 4.84113 91.0899 3.46081C91.5367 3.02867 92.0299 2.65214 92.5568 2.33122C93.7265 1.61827 95.0712 1.18977 96.4971 1.08036C96.5381 1.07672 96.5791 1.07398 96.6211 1.07125C96.8089 1.0594 96.9985 1.05119 97.1891 1.05028C97.3796 1.05028 97.5692 1.0594 97.757 1.07125C97.7981 1.07398 97.8391 1.07672 97.8801 1.08036C99.306 1.19068 100.651 1.61918 101.82 2.33213C102.347 2.65305 102.841 3.02958 103.287 3.46173C104.716 4.84295 105.646 6.74749 106.036 9.04954C106.174 9.86095 106.246 10.7198 106.247 11.6251C106.246 12.5295 106.174 13.3892 106.036 14.2006C105.645 16.5036 104.715 18.4081 103.287 19.7885C102.841 20.2206 102.347 20.5971 101.82 20.918C100.651 21.631 99.306 22.0595 97.8801 22.1698C97.8391 22.1735 97.798 22.1762 97.7561 22.1789C97.5683 22.1908 97.3787 22.199 97.1881 22.1999C96.9976 22.199 96.808 22.1908 96.6202 22.1789" fill="#263F64"/>
</g>
<defs>
<clipPath id="clip0_2001_6458">
<rect width="110" height="27" fill="white"/>
</clipPath>
</defs>
</svg>
