<svg width="40" height="37" viewBox="0 0 40 37" fill="none" xmlns="http://www.w3.org/2000/svg">
<path d="M0 36.4784V35.7769C0.892719 35.7769 1.70429 35.4801 2.43469 34.8866C3.1651 34.293 3.73319 33.4566 4.16602 32.3503L19.6128 0H21.2629L35.6005 32.3773C35.7899 32.782 35.9793 33.1867 36.1686 33.5915C36.358 33.9962 36.6015 34.3739 36.872 34.6977C37.1425 35.0215 37.4942 35.2913 37.9 35.4801C38.3058 35.696 38.8197 35.7769 39.4149 35.7769V36.4784H28.8646V35.7769C30.0549 35.7769 30.7582 35.4262 31.0017 34.7516C31.2452 34.0771 31.164 33.2677 30.7853 32.3773L27.8366 25.6051C27.539 25.686 27.2685 25.7669 26.998 25.7939C26.7004 25.8209 26.4028 25.8479 26.0512 25.8479C25.0502 25.8479 23.9681 25.686 22.7779 25.3892C21.5876 25.0924 20.3973 24.7417 19.1529 24.3639C17.9085 23.9592 16.6911 23.6085 15.5279 23.2847C14.3647 22.9609 13.2555 22.826 12.2546 22.826C11.3348 22.826 10.6044 22.9879 10.0093 23.2847L5.68094 32.5122C5.41042 33.1058 5.30221 33.6184 5.41042 34.0501C5.51862 34.4818 5.7621 34.8326 6.11378 35.0754C6.46545 35.3182 6.89828 35.5071 7.41227 35.642C7.92626 35.7769 8.41321 35.8309 8.92719 35.8309V36.5324H0.0270579L0 36.4784ZM10.6044 21.9356C11.0643 21.8007 11.6053 21.7468 12.2005 21.7468C13.2826 21.7468 14.4458 21.9086 15.6632 22.2324C16.8805 22.5562 18.1249 22.9339 19.4234 23.3386C20.6137 23.7164 21.7769 24.0671 22.9131 24.3639C24.0493 24.6877 25.0773 24.8226 25.97 24.8226C26.5651 24.8226 27.0521 24.7686 27.4308 24.6337L18.7471 4.50584L10.5774 21.9086L10.6044 21.9356Z" fill="#193E6A"/>
</svg>
