<svg width="40" height="37" viewBox="0 0 40 37" fill="none" xmlns="http://www.w3.org/2000/svg">
<path d="M0.0270579 0.0539622H10.8208V0.836414C9.90106 0.9983 9.38707 1.32207 9.27886 1.80773C9.1436 2.32037 9.36002 2.91396 9.87401 3.64245L21.7769 20.1549L33.4093 3.77735C33.9504 3.02188 34.1127 2.37434 33.8963 1.80773C33.7069 1.24113 33.1929 0.890376 32.3813 0.782452V0.0269811H39.6584V0.782452C38.7386 0.917357 37.8729 1.26811 36.9802 1.83471C36.1145 2.40132 35.33 3.18377 34.6267 4.15509L22.2909 21.6119C22.2909 23.6624 22.2909 25.686 22.2909 27.6826C22.2909 29.6792 22.2909 31.7028 22.2909 33.7533C22.318 34.1311 22.4803 34.5358 22.8049 34.9405C23.1295 35.3722 23.7247 35.642 24.6444 35.8039V36.5054H15.4467V35.8039C16.3395 35.642 16.9617 35.3992 17.2863 35.0215C17.6109 34.6437 17.8003 34.239 17.8544 33.7264C17.9355 31.8107 17.9626 29.922 17.9355 28.0334C17.9085 26.1447 17.8814 24.256 17.8814 22.3403L4.70706 4.10113C4.40948 3.72339 4.13897 3.34566 3.86845 2.96792C3.59793 2.59019 3.24624 2.21245 2.86751 1.88868C2.48878 1.5649 2.08301 1.29509 1.62312 1.07924C1.16324 0.863395 0.622198 0.755471 0 0.755471V0L0.0270579 0.0539622Z" fill="#193E6A"/>
</svg>
