<svg width="35" height="38" viewBox="0 0 35 38" fill="none" xmlns="http://www.w3.org/2000/svg">
<path d="M0.0540951 0.0539622C0.784501 0.0539622 1.54197 0.0539622 2.40763 0.0539622C3.24625 0.0539622 4.11191 0.0539622 5.00463 0.0539622C5.89735 0.0539622 6.76302 0.0539622 7.62869 0.0539622C8.49435 0.0539622 9.2518 0.0539622 9.95516 0.0539622V0.755471C9.06244 0.917357 8.35908 1.18717 7.92625 1.61887C7.46636 2.05056 7.2229 2.4283 7.14175 2.80603C7.1147 6.20565 7.08764 9.57829 7.14175 12.9509C7.19585 16.3236 7.14175 19.6962 7.14175 23.0958C7.14175 24.9575 7.30406 26.6843 7.62869 28.2492C7.95331 29.8141 8.5214 31.1362 9.33296 32.2424C10.1445 33.3486 11.2266 34.212 12.6063 34.7786C13.9589 35.3722 15.6631 35.669 17.7462 35.669C19.6669 35.642 21.3441 35.3183 22.8049 34.6977C24.2657 34.0771 25.4831 33.2407 26.4569 32.1615C27.4579 31.0822 28.1883 29.7601 28.7293 28.2492C29.2703 26.7383 29.5409 25.0654 29.5679 23.2577L29.8925 4.07415C29.8925 3.02188 29.6491 2.21245 29.0539 1.64585C28.4588 1.07924 27.6202 0.782452 26.511 0.755471V0H34.3561V0.701508C33.3823 0.755471 32.5978 1.05226 31.9756 1.59188C31.3534 2.13151 31.0558 2.94094 31.0017 4.07415L30.7041 23.3926C30.65 27.7905 29.4056 31.1632 26.9439 33.4835C24.4821 35.8039 21.1006 36.9911 16.7723 37.0181C7.43931 37.072 2.78636 32.5662 2.78636 23.4466C2.78636 19.993 2.78636 16.5394 2.78636 13.1128C2.78636 9.68621 2.78636 6.23263 2.78636 2.77905C2.73226 2.29339 2.46174 1.8617 2.02891 1.48396C1.59607 1.10622 0.919771 0.863395 0 0.701508V0L0.0540951 0.0539622Z" fill="#193E6A"/>
</svg>
