<svg width="29" height="37" viewBox="0 0 29 37" fill="none" xmlns="http://www.w3.org/2000/svg">
<path d="M0 0.755471V0H2.35352C3.48971 0 4.84232 0 6.46545 0C8.08857 0 9.76579 0 11.5512 0C12.985 0.0269811 14.4729 0.0809433 15.9878 0.161887C17.5027 0.24283 18.9365 0.458678 20.2891 0.836414C21.2629 1.10622 22.1015 1.51094 22.8319 2.05056C23.5624 2.59018 24.1305 3.21075 24.6174 3.91226C25.0773 4.64075 25.429 5.4232 25.6724 6.25961C25.9159 7.09603 26.0241 7.93244 26.0241 8.79584C26.0241 9.76715 25.8618 10.7115 25.5642 11.6828C25.2396 12.6272 24.7797 13.5175 24.1305 14.3C23.4812 15.0824 22.6967 15.757 21.7499 16.3236C20.8031 16.8632 19.6669 17.2409 18.3413 17.4298C18.8553 17.4837 19.3152 17.5647 19.748 17.6456C20.1808 17.7266 20.6137 17.8075 21.0465 17.9154C23.3189 18.3741 25.1584 19.4264 26.511 21.0183C27.8636 22.6371 28.567 24.6068 28.567 26.9271C28.567 28.7079 28.1883 30.2188 27.4579 31.433C26.7275 32.6741 25.7536 33.6724 24.5633 34.4279C23.346 35.1833 21.9933 35.7499 20.4784 36.1007C18.9635 36.4515 17.4215 36.6133 15.8525 36.6133C14.8516 36.6133 13.8236 36.6133 12.7686 36.5594C11.7136 36.5324 10.7126 36.5324 9.7658 36.5594C8.19678 36.5864 6.60071 36.5864 4.92348 36.5594C3.2733 36.5594 1.65017 36.5594 0.0540951 36.5594V35.7769C1.02797 35.723 1.73133 35.5881 2.19121 35.3452C2.6511 35.1294 2.86751 34.5898 2.86751 33.6994L2.92163 2.29339C2.92163 1.53792 2.6511 1.10622 2.083 0.9983C1.51491 0.890376 0.838611 0.809433 0.0811529 0.782452L0 0.755471ZM12.9038 16.7553C13.7154 16.7283 14.527 16.6204 15.2844 16.4854C16.0689 16.3236 16.7452 16.1077 17.3404 15.8379C17.9896 15.4871 18.5848 15.0554 19.1529 14.5158C19.6939 13.9762 20.1538 13.3556 20.5325 12.6541C20.9113 11.9796 21.2088 11.2511 21.3982 10.4687C21.5876 9.71319 21.6687 8.95772 21.6146 8.20225C21.5064 6.96112 21.2088 5.88188 20.6948 4.9915C20.1809 4.10113 19.5045 3.37264 18.693 2.80603C17.8814 2.23943 16.9617 1.83471 15.9337 1.53792C14.9057 1.26811 13.8507 1.10622 12.7415 1.07924C11.8218 1.05226 10.902 1.05226 9.9822 1.07924C9.03538 1.10622 8.14268 1.13321 7.24996 1.13321V15.4062C7.49343 15.6221 7.84509 15.8109 8.25087 15.9998C8.68371 16.1617 9.1436 16.3236 9.65759 16.4585C10.1716 16.5934 10.7126 16.6743 11.2807 16.7283C11.8488 16.7822 12.3628 16.8092 12.8768 16.8092L12.9038 16.7553ZM16.0419 35.1833C17.3133 34.9675 18.4766 34.5898 19.5045 34.0501C20.5325 33.5105 21.3711 32.863 22.0475 32.0266C22.6155 31.2981 23.0484 30.4886 23.373 29.5713C23.6976 28.6539 23.8058 27.6556 23.7517 26.5494C23.6976 25.2273 23.4812 24.1481 23.1295 23.2577C22.7778 22.3673 22.2909 21.6388 21.6958 21.0452C21.1006 20.4517 20.3973 19.966 19.5857 19.6153C18.7741 19.2645 17.9085 18.9677 16.9616 18.7519C16.1771 18.563 15.3656 18.4011 14.527 18.2932C13.6883 18.1583 12.8497 18.0234 11.9841 17.8615C11.1455 17.6996 10.3068 17.5377 9.49527 17.3488C8.6837 17.16 7.9533 16.9171 7.30405 16.5934V35.3992C8.46729 35.3992 9.8199 35.3992 11.3889 35.4801C12.9579 35.5341 14.527 35.4262 16.0689 35.1833H16.0419Z" fill="#193E6A"/>
</svg>
