<svg width="32" height="37" viewBox="0 0 32 37" fill="none" xmlns="http://www.w3.org/2000/svg">
<path d="M0 0.0539622C1.9748 0.0269811 3.9496 0 5.92441 0H11.8759C13.3096 0.0269811 14.8516 0.0809433 16.5018 0.161887C18.1519 0.24283 19.6669 0.458679 21.0195 0.782452C22.2098 1.10622 23.2377 1.5649 24.0764 2.23943C24.915 2.91396 25.6724 3.64245 26.2676 4.50584C26.8627 5.36924 27.2955 6.31358 27.5931 7.31188C27.8907 8.33716 28.053 9.33546 28.053 10.3877C28.053 12.2224 27.7284 13.8143 26.998 15.1364C26.2676 16.4585 25.2937 17.5647 24.0764 18.4551C22.859 19.3454 21.5064 20.02 19.9915 20.5056C18.4766 20.9913 16.9346 21.2881 15.3656 21.369C16.6911 22.0166 17.8003 22.799 18.72 23.7434C19.6398 24.6607 20.4514 25.659 21.1277 26.7113C21.7769 27.6826 22.3721 28.6269 22.9131 29.5983C23.4542 30.5426 23.9681 31.406 24.5092 32.1345C25.0502 32.863 25.5913 33.4566 26.1864 33.9152C26.7816 34.3739 27.4579 34.5898 28.2153 34.5898C29.3786 34.5898 30.2713 34.266 30.9476 33.6184L31.4616 33.9422C30.9476 34.8866 30.2172 35.615 29.2703 36.1277C28.3235 36.6403 27.2685 36.9101 26.1594 36.9101C24.9691 36.9371 23.914 36.7482 23.0213 36.2896C22.1016 35.8579 21.29 35.2643 20.5596 34.5628C19.8292 33.8343 19.1529 33.0249 18.5577 32.0805C17.9626 31.1362 17.3945 30.1649 16.8805 29.1666C16.2854 28.0873 15.6902 27.0351 15.041 26.0368C14.4188 25.0385 13.7154 24.1481 12.9579 23.3926C12.2005 22.6371 11.3078 22.0166 10.3068 21.5309C9.30592 21.0722 8.14268 20.8024 6.79007 20.7754V27.3588C6.79007 29.5173 6.79007 31.6758 6.84418 33.8343C6.84418 34.266 7.03354 34.6707 7.35817 35.0484C7.68279 35.4262 8.27794 35.669 9.19771 35.8039V36.5594H0V35.8039C0.919771 35.669 1.48786 35.4262 1.75839 35.0484C2.02891 34.6707 2.21827 34.239 2.35353 33.7264C2.46174 23.3926 2.46174 13.0858 2.35353 2.80603C2.21827 2.34735 2.02891 1.91566 1.75839 1.51094C1.48786 1.13321 0.919771 0.863395 0 0.728489V0.0269811V0.0539622ZM6.81712 19.8041C8.03447 19.7502 9.17066 19.8041 10.1986 19.912C11.2266 20.02 12.2005 20.2358 13.0932 20.5056C14.4458 20.4517 15.7173 20.1819 16.9076 19.7232C18.0978 19.2645 19.1529 18.6439 20.0726 17.8345C20.9924 17.0251 21.6958 16.0268 22.2639 14.8936C22.8049 13.7334 23.1025 12.4383 23.1295 11.0083C23.1836 9.25451 22.859 7.60867 22.1286 6.04376C21.3982 4.47886 20.2891 3.31867 18.8282 2.53622C17.8544 1.9966 16.7182 1.64585 15.4467 1.45698C14.1753 1.26811 12.8227 1.18717 11.416 1.18717H9.1436C8.25089 1.18717 7.49343 1.18717 6.87123 1.24113C6.87123 4.37094 6.87123 7.44678 6.81712 10.5226C6.79007 13.5985 6.79007 16.7013 6.81712 19.8041Z" fill="#193E6A"/>
</svg>
