<svg width="28" height="38" viewBox="0 0 28 38" fill="none" xmlns="http://www.w3.org/2000/svg">
<path d="M0 27.5207L0.892724 27.4398C1.27145 28.8158 1.8666 30.0569 2.65111 31.1901C3.43562 32.3233 4.38245 33.2677 5.46453 34.1041C6.54662 34.9405 7.70984 35.5341 8.98129 35.9658C10.2527 36.3975 11.5512 36.6133 12.8497 36.6133C14.1212 36.5864 15.3385 36.3975 16.5018 36.0467C17.665 35.696 18.6659 35.2103 19.5587 34.5358C20.4514 33.8613 21.1547 33.0249 21.6958 31.9996C22.2368 30.9743 22.5344 29.8141 22.6155 28.4651C22.6696 27.2509 22.4803 26.1717 22.0204 25.2273C21.5605 24.283 20.9113 23.4735 20.0727 22.772C19.2611 22.0705 18.2872 21.45 17.2051 20.9373C16.123 20.4247 14.9869 19.966 13.7425 19.5613C12.444 19.1296 11.0643 18.7249 9.6035 18.3202C8.16974 17.9424 6.79008 17.4298 5.51863 16.8092C4.11192 16.0807 2.92164 15.1904 2.00187 14.0841C1.05505 12.9779 0.5681 11.4939 0.513996 9.60527C0.459892 8.22923 0.730406 6.90716 1.3526 5.63905C1.9748 4.37094 2.97574 3.26471 4.30129 2.37434C5.38338 1.61887 6.68188 1.05226 8.16974 0.620565C9.65761 0.188868 11.2807 0 13.0662 0C14.1212 0 15.1221 0.0539622 16.0148 0.134905C16.9346 0.215849 17.8003 0.350754 18.6118 0.539622C19.4234 0.728489 20.235 0.944338 20.9924 1.21415C21.7499 1.48396 22.5344 1.83471 23.373 2.18547L24.7256 9.06565H23.7247C23.4812 8.17527 23.0213 7.25791 22.3991 6.34056C21.7499 5.4232 20.9654 4.58679 20.0185 3.80433C19.0717 3.04886 18.0167 2.4283 16.8535 1.94264C15.6902 1.45698 14.4188 1.21415 13.0662 1.16019C11.7947 1.13321 10.5503 1.29509 9.38708 1.61887C8.22384 1.96962 7.19587 2.53622 6.35726 3.29169C5.81621 3.80433 5.38337 4.39792 5.05875 5.09943C4.70707 5.80093 4.5177 6.61037 4.43654 7.50074C4.38244 8.36414 4.51771 9.14659 4.86938 9.8481C5.22106 10.5496 5.70801 11.1432 6.35726 11.6828C7.00651 12.2224 7.76396 12.7081 8.65668 13.1128C9.5494 13.5175 10.5233 13.8683 11.5513 14.1381C13.1473 14.5428 14.8516 15.0554 16.637 15.649C18.4225 16.2426 20.0997 17.0251 21.6687 17.9694C23.2377 18.9137 24.5092 20.0469 25.5372 21.423C26.5652 22.799 27.1062 24.4719 27.1874 26.4415C27.2415 28.3841 26.8898 30.03 26.1053 31.406C25.3208 32.782 24.2928 33.9152 23.0213 34.8326C21.6417 35.8309 20.0997 36.5594 18.3684 37.0181C16.6641 37.4767 14.9057 37.7196 13.1203 37.7465C10.8479 37.7465 8.60257 37.4498 6.41135 36.8562C4.22013 36.2626 2.27238 35.4801 0.595149 34.4818L0 27.5477V27.5207Z" fill="#193E6A"/>
</svg>
