<svg width="37" height="37" viewBox="0 0 37 37" fill="none" xmlns="http://www.w3.org/2000/svg">
<path d="M2.02891 0H34.6267L36.4933 6.93414H35.4653C34.8972 5.96282 34.302 5.12641 33.7069 4.39792C33.0847 3.66943 32.2731 3.04886 31.2181 2.53622C30.1631 2.02358 28.8105 1.67283 27.1332 1.40302C25.456 1.16019 23.2648 1.02528 20.5866 1.02528C20.5866 6.52942 20.5866 11.9796 20.5325 17.3758C20.5055 22.799 20.5325 28.2492 20.5866 33.7264C20.6407 34.1041 20.8301 34.5088 21.1277 34.9135C21.4253 35.3452 22.0204 35.615 22.9402 35.7769V36.4784H13.7425V35.7769C14.6352 35.615 15.2303 35.3452 15.5008 34.9945C15.7714 34.6167 15.9607 34.212 16.096 33.7264C16.1501 28.2492 16.1771 22.799 16.1771 17.3758C16.1771 11.9526 16.1771 6.50244 16.1771 1.02528C13.526 1.02528 11.3348 1.16019 9.65759 1.40302C7.98036 1.64585 6.57366 2.02358 5.49157 2.50924C4.40949 2.9949 3.54382 3.58849 2.89457 4.34396C2.24532 5.07245 1.65018 5.93584 1.08208 6.90716L0 6.96112L2.02891 0.0269811V0Z" fill="#193E6A"/>
</svg>
