<svg width="30" height="37" viewBox="0 0 30 37" fill="none" xmlns="http://www.w3.org/2000/svg">
<path d="M0 35.8309C0.892719 35.669 1.48786 35.3992 1.75838 35.0484C2.0289 34.6707 2.21827 34.266 2.35353 33.7803C2.43468 23.4196 2.43468 13.1128 2.35353 2.80603C2.21827 2.34735 2.0289 1.91566 1.75838 1.53792C1.48786 1.16019 0.892719 0.890376 0 0.755471V0.0539622C1.40671 0.0269811 2.94867 0 4.59885 0C6.24902 0 7.791 3.01537e-08 9.19771 0.0539622V0.755471C8.27794 0.917357 7.68279 1.21415 7.35817 1.61887C7.03354 2.05056 6.87123 2.4283 6.84417 2.80603C6.73596 13.1668 6.73596 23.5275 6.84417 33.8613L6.89827 35.5881H8.46729C9.17065 35.5881 9.90105 35.5881 10.6856 35.5881C11.4701 35.5881 12.2005 35.5881 12.9309 35.5881H14.6081C17.0158 35.5611 19.0176 35.4801 20.6678 35.3182C22.2909 35.1833 23.6435 34.9135 24.6985 34.5358C25.7536 34.1581 26.6192 33.6454 27.2414 32.9709C27.8636 32.2964 28.3776 31.433 28.7293 30.3267H29.8655L28.594 36.5594H14.7975C12.3358 36.5594 9.874 36.5594 7.41226 36.5594C4.95052 36.5594 2.48879 36.5594 0.0270475 36.5594V35.8579L0 35.8309Z" fill="#193E6A"/>
</svg>
