<svg width="10" height="37" viewBox="0 0 10 37" fill="none" xmlns="http://www.w3.org/2000/svg">
<path d="M0 35.8309C0.892719 35.669 1.48787 35.3992 1.75839 35.0484C2.02891 34.6707 2.21827 34.266 2.35353 33.7803C2.43469 23.4196 2.43469 13.1128 2.35353 2.80603C2.21827 2.34735 2.02891 1.91566 1.75839 1.53792C1.48787 1.16019 0.892719 0.890376 0 0.755471V0.0539622C1.40671 0.0269811 2.94868 0 4.59886 0C6.24903 0 7.791 3.01537e-08 9.19771 0.0539622V0.755471C8.27794 0.917357 7.68279 1.21415 7.35817 1.61887C7.03354 2.05056 6.87123 2.4283 6.84418 2.80603C6.73597 13.1668 6.73597 23.5275 6.84418 33.8613C6.87123 34.293 7.03354 34.6977 7.35817 35.0484C7.68279 35.3992 8.27794 35.669 9.19771 35.8309V36.5324H0V35.8309Z" fill="#193E6A"/>
</svg>
